<svg width="33" height="33" viewBox="0 0 33 33" fill="none" xmlns="http://www.w3.org/2000/svg">
<path d="M31.2103 0.379883H1.7512C1.04274 0.379883 0.47037 0.952254 0.47037 1.66071V31.1198C0.47037 31.8283 1.04274 32.4007 1.7512 32.4007H31.2103C31.9188 32.4007 32.4911 31.8283 32.4911 31.1198V1.66071C32.4911 0.952254 31.9188 0.379883 31.2103 0.379883ZM27.5119 9.72595H24.9543C22.949 9.72595 22.5607 10.6786 22.5607 12.0795V15.1655H27.3478L26.7234 19.9966H22.5607V32.4007H17.5695V20.0006H13.3948V15.1655H17.5695V11.6032C17.5695 7.46848 20.0951 5.21502 23.7855 5.21502C25.5546 5.21502 27.0716 5.34711 27.5159 5.40715V9.72595H27.5119Z" fill="#FA4A0C"/>
</svg>
