<svg width="39" height="39" viewBox="0 0 39 39" fill="none" xmlns="http://www.w3.org/2000/svg">
<path d="M27.625 3.25H11.375C6.88765 3.25 3.24997 6.88769 3.24997 11.375V27.625C3.24997 32.1123 6.88765 35.75 11.375 35.75H27.625C32.1123 35.75 35.75 32.1123 35.75 27.625V11.375C35.75 6.88769 32.1123 3.25 27.625 3.25Z" fill="#FA4A0C"/>
<path d="M26.0001 18.4763C26.2007 19.8287 25.9697 21.2099 25.34 22.4234C24.7103 23.6369 23.714 24.621 22.4928 25.2357C21.2715 25.8504 19.8876 26.0643 18.5378 25.8471C17.188 25.6299 15.941 24.9926 14.9742 24.0259C14.0075 23.0591 13.3702 21.8122 13.153 20.4623C12.9358 19.1125 13.1497 17.7286 13.7644 16.5074C14.3791 15.2861 15.3632 14.2898 16.5767 13.6601C17.7903 13.0305 19.1715 12.7995 20.5239 13C21.9034 13.2046 23.1805 13.8474 24.1666 14.8335C25.1527 15.8196 25.7956 17.0968 26.0001 18.4763Z" stroke="white" stroke-width="2" stroke-linecap="round" stroke-linejoin="round"/>
<path d="M28.4375 10.5625H28.4538" stroke="white" stroke-width="2" stroke-linecap="round" stroke-linejoin="round"/>
</svg>
