<svg width="35" height="28" viewBox="0 0 35 28" fill="none" xmlns="http://www.w3.org/2000/svg">
<path d="M34.1449 4.07567C32.9201 4.60402 31.5873 4.98426 30.2144 5.13236C31.6398 4.28555 32.7072 2.94774 33.2163 1.36992C31.8788 2.16559 30.4135 2.72353 28.8855 3.01899C28.2469 2.33625 27.4745 1.79235 26.6165 1.42118C25.7584 1.05001 24.8332 0.859524 23.8983 0.861589C20.1158 0.861589 17.0739 3.92758 17.0739 7.69002C17.0739 8.21836 17.1379 8.74671 17.242 9.25504C11.5783 8.95884 6.52702 6.25309 3.16884 2.1104C2.55695 3.15554 2.23629 4.34555 2.24024 5.55663C2.24024 7.92617 3.44502 10.0155 5.28221 11.2443C4.19953 11.2017 3.1422 10.9041 2.19621 10.3758V10.4598C2.19621 13.778 4.54173 16.5278 7.66776 17.1602C7.08082 17.3126 6.47702 17.3906 5.8706 17.3923C5.42631 17.3923 5.00604 17.3483 4.58176 17.2882C5.44632 19.994 7.96395 21.9593 10.9619 22.0233C8.61638 23.8605 5.67847 24.9412 2.4884 24.9412C1.91603 24.9412 1.38769 24.9212 0.839333 24.8572C3.8653 26.7984 7.45563 27.9191 11.3221 27.9191C23.8743 27.9191 30.7427 17.5204 30.7427 8.49454C30.7427 8.19835 30.7427 7.90216 30.7227 7.60597C32.0516 6.63333 33.2163 5.42855 34.1449 4.07567Z" fill="#FA4A0C"/>
</svg>
